<?xml version="1.0" encoding="UTF-8" standalone="no"?>
<!-- Created with Inkscape (http://www.inkscape.org/) -->

<svg
   xmlns:dc="http://purl.org/dc/elements/1.1/"
   xmlns:cc="http://creativecommons.org/ns#"
   xmlns:rdf="http://www.w3.org/1999/02/22-rdf-syntax-ns#"
   xmlns:svg="http://www.w3.org/2000/svg"
   xmlns="http://www.w3.org/2000/svg"
   xmlns:sodipodi="http://sodipodi.sourceforge.net/DTD/sodipodi-0.dtd"
   xmlns:inkscape="http://www.inkscape.org/namespaces/inkscape"
   width="82.897995mm"
   height="48.000172mm"
   viewBox="0 0 293.73305 170.07935"
   id="svg2"
   version="1.1"
   inkscape:version="0.91 r13725"
   sodipodi:docname="breadboard.svg"
   style="enable-background:new">
  <defs
     id="defs4" />
  <sodipodi:namedview
     id="base"
     pagecolor="#ffffff"
     bordercolor="#666666"
     borderopacity="1.0"
     inkscape:pageopacity="0.0"
     inkscape:pageshadow="2"
     inkscape:zoom="2.0664642"
     inkscape:cx="53.107229"
     inkscape:cy="73.533087"
     inkscape:document-units="px"
     inkscape:current-layer="svg2"
     showgrid="false"
     inkscape:window-width="967"
     inkscape:window-height="686"
     inkscape:window-x="84"
     inkscape:window-y="1"
     inkscape:window-maximized="0"
     fit-margin-top="0"
     fit-margin-left="0"
     fit-margin-right="0"
     fit-margin-bottom="0" />
  <metadata
     id="metadata7">
    <rdf:RDF>
      <cc:Work
         rdf:about="">
        <dc:format>image/svg+xml</dc:format>
        <dc:type
           rdf:resource="http://purl.org/dc/dcmitype/StillImage" />
        <dc:title></dc:title>
      </cc:Work>
    </rdf:RDF>
  </metadata>
  <path
     inkscape:connector-curvature="0"
     id="rect3347"
     d="m 4.04806,0.19494 0,169.68946 283.07422,0 0,-169.68946 -283.07422,0 z M 113.36642,4.7008 a 1.580587,1.580587 0 0 1 1.58008,1.58008 1.580587,1.580587 0 0 1 -1.58008,1.58203 1.580587,1.580587 0 0 1 -1.58008,-1.58203 1.580587,1.580587 0 0 1 1.58008,-1.58008 z m 9.03125,0 a 1.580587,1.580587 0 0 1 1.58203,1.58008 1.580587,1.580587 0 0 1 -1.58203,1.58203 1.580587,1.580587 0 0 1 -1.58008,-1.58203 1.580587,1.580587 0 0 1 1.58008,-1.58008 z m 9.0332,0 a 1.580587,1.580587 0 0 1 1.58008,1.58008 1.580587,1.580587 0 0 1 -1.58008,1.58203 1.580587,1.580587 0 0 1 -1.58007,-1.58203 1.580587,1.580587 0 0 1 1.58007,-1.58008 z m 9.03321,0 a 1.580587,1.580587 0 0 1 1.58007,1.58008 1.580587,1.580587 0 0 1 -1.58007,1.58203 1.580587,1.580587 0 0 1 -1.58204,-1.58203 1.580587,1.580587 0 0 1 1.58204,-1.58008 z m 9.03125,0 a 1.580587,1.580587 0 0 1 1.58007,1.58008 1.580587,1.580587 0 0 1 -1.58007,1.58203 1.580587,1.580587 0 0 1 -1.58008,-1.58203 1.580587,1.580587 0 0 1 1.58008,-1.58008 z m 9.0332,0 a 1.580587,1.580587 0 0 1 1.58008,1.58008 1.580587,1.580587 0 0 1 -1.58008,1.58203 1.580587,1.580587 0 0 1 -1.58203,-1.58203 1.580587,1.580587 0 0 1 1.58203,-1.58008 z m 9.03125,0 a 1.580587,1.580587 0 0 1 1.58203,1.58008 1.580587,1.580587 0 0 1 -1.58203,1.58203 1.580587,1.580587 0 0 1 -1.58008,-1.58203 1.580587,1.580587 0 0 1 1.58008,-1.58008 z m 9.0332,0 a 1.580587,1.580587 0 0 1 1.58008,1.58008 1.580587,1.580587 0 0 1 -1.58008,1.58203 1.580587,1.580587 0 0 1 -1.58008,-1.58203 1.580587,1.580587 0 0 1 1.58008,-1.58008 z m 9.03125,0 a 1.580587,1.580587 0 0 1 1.58203,1.58008 1.580587,1.580587 0 0 1 -1.58203,1.58203 1.580587,1.580587 0 0 1 -1.58008,-1.58203 1.580587,1.580587 0 0 1 1.58008,-1.58008 z m 9.03321,0 a 1.580587,1.580587 0 0 1 1.58007,1.58008 1.580587,1.580587 0 0 1 -1.58007,1.58203 1.580587,1.580587 0 0 1 -1.58008,-1.58203 1.580587,1.580587 0 0 1 1.58008,-1.58008 z m 9.0332,0 a 1.580587,1.580587 0 0 1 1.58008,1.58008 1.580587,1.580587 0 0 1 -1.58008,1.58203 1.580587,1.580587 0 0 1 -1.58203,-1.58203 1.580587,1.580587 0 0 1 1.58203,-1.58008 z m 9.03125,0 a 1.580587,1.580587 0 0 1 1.58008,1.58008 1.580587,1.580587 0 0 1 -1.58008,1.58203 1.580587,1.580587 0 0 1 -1.58008,-1.58203 1.580587,1.580587 0 0 1 1.58008,-1.58008 z m 9.0332,0 a 1.580587,1.580587 0 0 1 1.58008,1.58008 1.580587,1.580587 0 0 1 -1.58008,1.58203 1.580587,1.580587 0 0 1 -1.58008,-1.58203 1.580587,1.580587 0 0 1 1.58008,-1.58008 z m 9.03125,0 a 1.580587,1.580587 0 0 1 1.58203,1.58008 1.580587,1.580587 0 0 1 -1.58203,1.58203 1.580587,1.580587 0 0 1 -1.58008,-1.58203 1.580587,1.580587 0 0 1 1.58008,-1.58008 z m 9.0332,0 a 1.580587,1.580587 0 0 1 1.58008,1.58008 1.580587,1.580587 0 0 1 -1.58008,1.58203 1.580587,1.580587 0 0 1 -1.58007,-1.58203 1.580587,1.580587 0 0 1 1.58007,-1.58008 z m 9.03321,0 a 1.580587,1.580587 0 0 1 1.58008,1.58008 1.580587,1.580587 0 0 1 -1.58008,1.58203 1.580587,1.580587 0 0 1 -1.58203,-1.58203 1.580587,1.580587 0 0 1 1.58203,-1.58008 z m 9.03125,0 A 1.580587,1.580587 0 0 1 259.46408,6.28088 1.580587,1.580587 0 0 1 257.884,7.86291 1.580587,1.580587 0 0 1 256.30392,6.28088 1.580587,1.580587 0 0 1 257.884,4.7008 Z m 9.0332,0 a 1.580587,1.580587 0 0 1 1.58008,1.58008 1.580587,1.580587 0 0 1 -1.58008,1.58203 1.580587,1.580587 0 0 1 -1.58203,-1.58203 1.580587,1.580587 0 0 1 1.58203,-1.58008 z m 10.98828,0.60938 a 3.5433071,3.5433071 0 0 1 3.54297,3.54297 3.5433071,3.5433071 0 0 1 -3.54297,3.54297 3.5433071,3.5433071 0 0 1 -3.54492,-3.54297 3.5433071,3.5433071 0 0 1 3.54492,-3.54297 z M 10.47384,157.95276 a 3.5433071,3.5433071 0 0 1 3.54297,3.54296 3.5433071,3.5433071 0 0 1 -3.54297,3.54297 3.5433071,3.5433071 0 0 1 -3.54297,-3.54297 3.5433071,3.5433071 0 0 1 3.54297,-3.54296 z m 102.92188,4.41601 a 1.580587,1.580587 0 0 1 1.58008,1.58008 1.580587,1.580587 0 0 1 -1.58008,1.58203 1.580587,1.580587 0 0 1 -1.58203,-1.58203 1.580587,1.580587 0 0 1 1.58203,-1.58008 z m 9.03125,0 a 1.580587,1.580587 0 0 1 1.58203,1.58008 1.580587,1.580587 0 0 1 -1.58203,1.58203 1.580587,1.580587 0 0 1 -1.58008,-1.58203 1.580587,1.580587 0 0 1 1.58008,-1.58008 z m 9.0332,0 a 1.580587,1.580587 0 0 1 1.58008,1.58008 1.580587,1.580587 0 0 1 -1.58008,1.58203 1.580587,1.580587 0 0 1 -1.58008,-1.58203 1.580587,1.580587 0 0 1 1.58008,-1.58008 z m 9.03125,0 a 1.580587,1.580587 0 0 1 1.58203,1.58008 1.580587,1.580587 0 0 1 -1.58203,1.58203 1.580587,1.580587 0 0 1 -1.58008,-1.58203 1.580587,1.580587 0 0 1 1.58008,-1.58008 z m 9.0332,0 a 1.580587,1.580587 0 0 1 1.58008,1.58008 1.580587,1.580587 0 0 1 -1.58008,1.58203 1.580587,1.580587 0 0 1 -1.58008,-1.58203 1.580587,1.580587 0 0 1 1.58008,-1.58008 z m 9.03321,0 a 1.580587,1.580587 0 0 1 1.58007,1.58008 1.580587,1.580587 0 0 1 -1.58007,1.58203 1.580587,1.580587 0 0 1 -1.58203,-1.58203 1.580587,1.580587 0 0 1 1.58203,-1.58008 z m 9.03125,0 a 1.580587,1.580587 0 0 1 1.58007,1.58008 1.580587,1.580587 0 0 1 -1.58007,1.58203 1.580587,1.580587 0 0 1 -1.58008,-1.58203 1.580587,1.580587 0 0 1 1.58008,-1.58008 z m 9.0332,0 a 1.580587,1.580587 0 0 1 1.58008,1.58008 1.580587,1.580587 0 0 1 -1.58008,1.58203 1.580587,1.580587 0 0 1 -1.58203,-1.58203 1.580587,1.580587 0 0 1 1.58203,-1.58008 z m 9.03125,0 a 1.580587,1.580587 0 0 1 1.58203,1.58008 1.580587,1.580587 0 0 1 -1.58203,1.58203 1.580587,1.580587 0 0 1 -1.58008,-1.58203 1.580587,1.580587 0 0 1 1.58008,-1.58008 z m 9.0332,0 a 1.580587,1.580587 0 0 1 1.58008,1.58008 1.580587,1.580587 0 0 1 -1.58008,1.58203 1.580587,1.580587 0 0 1 -1.58008,-1.58203 1.580587,1.580587 0 0 1 1.58008,-1.58008 z m 9.03125,0 a 1.580587,1.580587 0 0 1 1.58203,1.58008 1.580587,1.580587 0 0 1 -1.58203,1.58203 1.580587,1.580587 0 0 1 -1.58008,-1.58203 1.580587,1.580587 0 0 1 1.58008,-1.58008 z m 9.03321,0 a 1.580587,1.580587 0 0 1 1.58007,1.58008 1.580587,1.580587 0 0 1 -1.58007,1.58203 1.580587,1.580587 0 0 1 -1.58008,-1.58203 1.580587,1.580587 0 0 1 1.58008,-1.58008 z m 9.0332,0 a 1.580587,1.580587 0 0 1 1.58008,1.58008 1.580587,1.580587 0 0 1 -1.58008,1.58203 1.580587,1.580587 0 0 1 -1.58203,-1.58203 1.580587,1.580587 0 0 1 1.58203,-1.58008 z m 9.03125,0 a 1.580587,1.580587 0 0 1 1.58008,1.58008 1.580587,1.580587 0 0 1 -1.58008,1.58203 1.580587,1.580587 0 0 1 -1.58008,-1.58203 1.580587,1.580587 0 0 1 1.58008,-1.58008 z m 9.0332,0 a 1.580587,1.580587 0 0 1 1.58008,1.58008 1.580587,1.580587 0 0 1 -1.58008,1.58203 1.580587,1.580587 0 0 1 -1.58008,-1.58203 1.580587,1.580587 0 0 1 1.58008,-1.58008 z m 9.03125,0 a 1.580587,1.580587 0 0 1 1.58203,1.58008 1.580587,1.580587 0 0 1 -1.58203,1.58203 1.580587,1.580587 0 0 1 -1.58008,-1.58203 1.580587,1.580587 0 0 1 1.58008,-1.58008 z m 9.03321,0 a 1.580587,1.580587 0 0 1 1.58007,1.58008 1.580587,1.580587 0 0 1 -1.58007,1.58203 1.580587,1.580587 0 0 1 -1.58008,-1.58203 1.580587,1.580587 0 0 1 1.58008,-1.58008 z m 9.03124,0 a 1.580587,1.580587 0 0 1 1.58204,1.58008 1.580587,1.580587 0 0 1 -1.58204,1.58203 1.580587,1.580587 0 0 1 -1.58007,-1.58203 1.580587,1.580587 0 0 1 1.58007,-1.58008 z"
     style="fill:#ff0000;fill-rule:evenodd;stroke:#000000;stroke-width:0.38988742px;stroke-linecap:butt;stroke-linejoin:miter;stroke-opacity:1" />
  <rect
     y="41.237057"
     x="114.59142"
     height="67.727272"
     width="67.727264"
     id="rect4155"
     style="fill:#1a1a1a" />
  <rect
     y="27.600706"
     x="194.59143"
     height="20.909092"
     width="21.363634"
     id="rect4157"
     style="fill:#1a1a1a" />
  <rect
     y="26.237059"
     x="56.409664"
     height="29.09091"
     width="40.909088"
     id="rect4159"
     style="fill:#1a1a1a" />
  <rect
     y="82.600708"
     x="55.500484"
     height="28.181818"
     width="40.909088"
     id="rect4161"
     style="fill:#1a1a1a" />
  <rect
     y="109.87341"
     x="194.59143"
     height="22.272728"
     width="22.272726"
     id="rect4163"
     style="fill:#1a1a1a" />
  <rect
     y="133.50977"
     x="45.955074"
     height="18.636362"
     width="19.090906"
     id="rect4165"
     style="fill:#1a1a1a" />
  <rect
     y="21.237059"
     x="255.50055"
     height="23.181818"
     width="35.454536"
     id="rect4169"
     style="fill:#4d4d4d" />
  <rect
     y="99.418823"
     x="240.95502"
     height="47.727276"
     width="52.727264"
     id="rect4171"
     style="fill:#cccccc" />
  <rect
     y="120.78247"
     x="1.8641312"
     height="25.454546"
     width="19.999998"
     id="rect4175"
     style="fill:#cccccc" />
  <rect
     y="72.146118"
     x="0.046015948"
     height="23.181818"
     width="27.72727"
     id="rect4177"
     style="fill:#ffeeaa" />
  <rect
     y="137.60071"
     x="83.682365"
     height="13.636363"
     width="22.272726"
     id="rect4179"
     style="fill:#cccccc" />
  <rect
     y="142.14612"
     x="88.682365"
     height="4.5454602"
     width="10.909091"
     id="rect4181"
     style="fill:#fff6d5" />
  <rect
     y="137.48706"
     x="83.796013"
     height="0.90909427"
     width="22.159086"
     id="rect4189"
     style="fill:#f9f9f9" />
  <rect
     y="150.55518"
     x="83.682365"
     height="0.68181819"
     width="22.045452"
     id="rect4202"
     style="fill:#b3b3b3" />
  <path
     sodipodi:nodetypes="ccccc"
     inkscape:connector-curvature="0"
     id="rect4208"
     d="m 255.56295,21.20864 1.94546,0 0,21.4274 -1.94546,1.5498 z"
     style="fill:#333333" />
  <path
     sodipodi:nodetypes="ccccc"
     inkscape:connector-curvature="0"
     id="rect4210"
     d="m 257.53177,42.52824 33.29942,-0.2583 0,1.9668 -35.23671,0 z"
     style="fill:#1a1a1a" />
  <rect
     y="99.286743"
     x="240.90283"
     height="2.3797407"
     width="52.671589"
     id="rect4248"
     style="fill:#e6e6e6" />
  <rect
     y="145.13635"
     x="241.06146"
     height="1.9037926"
     width="52.671589"
     id="rect4252"
     style="fill:#b3b3b3" />
  <rect
     transform="scale(1,-1)"
     y="-146.1748"
     x="1.7853959"
     height="1.2834581"
     width="20.058891"
     id="rect4254"
     style="fill:#b3b3b3" />
  <rect
     y="120.63208"
     x="1.8583939"
     height="1.5557067"
     width="20.068615"
     id="rect4298"
     style="fill:#e6e6e6" />
  <rect
     ry="0"
     y="120.63208"
     x="20.526852"
     height="25.513577"
     width="1.3223509"
     id="rect4300"
     style="fill:#4d4d4d" />
  <rect
     y="72.121582"
     x="22.862057"
     height="23.237434"
     width="4.9999995"
     id="rect4325"
     style="fill:#806600" />
  <rect
     y="72.07605"
     x="-4.560547e-06"
     height="0.88210988"
     width="22.774467"
     id="rect4327"
     style="fill:#fff6d5" />
  <rect
     y="94.369385"
     x="-4.560547e-06"
     height="0.96230239"
     width="22.854698"
     id="rect4329"
     style="fill:#ffe680" />
  <text
     sodipodi:linespacing="125%"
     id="text4331"
     y="7.5198951"
     x="20.262936"
     style="font-style:normal;font-variant:normal;font-weight:normal;font-stretch:normal;font-size:3.99999976px;line-height:125%;font-family:OCRA;-inkscape-font-specification:OCRA;letter-spacing:0px;word-spacing:0px;fill:#ffffff;fill-opacity:1;stroke:none;stroke-width:1px;stroke-linecap:butt;stroke-linejoin:miter;stroke-opacity:1"
     xml:space="preserve"><tspan
       style="font-style:normal;font-variant:normal;font-weight:normal;font-stretch:normal;font-size:5.99999952px;font-family:OCRA;-inkscape-font-specification:OCRA;fill:#ffffff"
       y="7.5198951"
       x="20.262936"
       id="tspan4333"
       sodipodi:role="line">Open Sourse Hardware</tspan></text>
  <text
     sodipodi:linespacing="125%"
     id="text4335"
     y="15.59509"
     x="34.899288"
     style="font-style:normal;font-variant:normal;font-weight:normal;font-stretch:normal;font-size:5.99999952px;line-height:125%;font-family:OCRA;-inkscape-font-specification:OCRA;letter-spacing:0px;word-spacing:0px;fill:#000000;fill-opacity:1;stroke:none;stroke-width:1px;stroke-linecap:butt;stroke-linejoin:miter;stroke-opacity:1"
     xml:space="preserve"><tspan
       style="font-style:normal;font-variant:normal;font-weight:normal;font-stretch:normal;font-family:OCRA;-inkscape-font-specification:OCRA;fill:#ffffff"
       y="15.59509"
       x="34.899288"
       id="tspan4337"
       sodipodi:role="line">Designed for B2G</tspan></text>
  <text
     sodipodi:linespacing="125%"
     id="text4339"
     y="165.995"
     x="28.244259"
     style="font-style:normal;font-variant:normal;font-weight:normal;font-stretch:normal;font-size:5.99999952px;line-height:125%;font-family:OCRA;-inkscape-font-specification:OCRA;letter-spacing:0px;word-spacing:0px;fill:#000000;fill-opacity:1;stroke:none;stroke-width:1px;stroke-linecap:butt;stroke-linejoin:miter;stroke-opacity:1"
     xml:space="preserve"><tspan
       style="font-style:normal;font-variant:normal;font-weight:normal;font-stretch:normal;font-size:4.99999952px;font-family:OCRA;-inkscape-font-specification:OCRA;fill:#ffffff"
       y="165.995"
       x="28.244259"
       id="tspan4341"
       sodipodi:role="line">CHIRIMEN</tspan></text>
  <text
     sodipodi:linespacing="125%"
     id="text4364"
     y="156.11609"
     x="77.602287"
     style="font-style:normal;font-variant:normal;font-weight:normal;font-stretch:normal;font-size:5.99999952px;line-height:125%;font-family:OCRA;-inkscape-font-specification:OCRA;letter-spacing:0px;word-spacing:0px;fill:#ffffff;fill-opacity:1;stroke:none;stroke-width:1px;stroke-linecap:butt;stroke-linejoin:miter;stroke-opacity:1"
     xml:space="preserve"><tspan
       style="font-style:normal;font-variant:normal;font-weight:normal;font-stretch:normal;font-size:4.5px;font-family:OCRA;-inkscape-font-specification:OCRA;fill:#ffffff"
       y="156.11609"
       x="77.602287"
       id="tspan4366"
       sodipodi:role="line">Recover Mode</tspan></text>
  <path
     inkscape:connector-curvature="0"
     id="path4387"
     d="m 277.85275,3.09924 a 5.7419705,5.7419715 0 0 0 -5.74219,5.74219 5.7419705,5.7419715 0 0 0 5.74219,5.74219 5.7419705,5.7419715 0 0 0 5.74219,-5.74219 5.7419705,5.7419715 0 0 0 -5.74219,-5.74219 z m 0.0527,2.21094 a 3.5433071,3.5433071 0 0 1 3.54297,3.54297 3.5433071,3.5433071 0 0 1 -3.54297,3.54297 3.5433071,3.5433071 0 0 1 -3.54492,-3.54297 3.5433071,3.5433071 0 0 1 3.54492,-3.54297 z"
     style="fill:#ffe680" />
  <path
     id="path4387-8"
     d="m 10.44212,155.79235 a 5.7419705,5.7419715 0 0 0 -5.74219,5.74219 5.7419705,5.7419715 0 0 0 5.74219,5.74219 5.7419705,5.7419715 0 0 0 5.74219,-5.74219 5.7419705,5.7419715 0 0 0 -5.74219,-5.74219 z m 0.0527,2.21094 a 3.5433071,3.5433071 0 0 1 3.54297,3.54297 3.5433071,3.5433071 0 0 1 -3.54297,3.54297 3.5433071,3.5433071 0 0 1 -3.54492,-3.54297 3.5433071,3.5433071 0 0 1 3.54492,-3.54297 z"
     style="display:inline;fill:#ffe680"
     inkscape:connector-curvature="0" />
  <rect
     y="1.785581"
     x="108.73833"
     height="8.5789909"
     width="162.42889"
     id="rect5211"
     style="fill:none" />
  <rect
     y="2.3575413"
     x="108.73833"
     height="8.0070858"
     width="161.85696"
     id="rect5213"
     style="fill:none;stroke:#ffffff;stroke-opacity:1" />
  <rect
     y="158.49518"
     x="107.59444"
     height="10.294789"
     width="164.71663"
     id="rect5215"
     style="fill:none;stroke:#ffffff;stroke-opacity:1" />
  <rect
     y="88.37439"
     x="240.65506"
     height="4.312191"
     width="9.314333"
     id="rect5217"
     style="fill:#e6e6e6;fill-opacity:1;stroke:none;stroke-opacity:1" />
  <rect
     y="88.37439"
     x="244.96725"
     height="4.3122039"
     width="3.6222298"
     id="rect5219"
     style="fill:#ffe680;fill-opacity:1;stroke:none;stroke-opacity:1" />
  <rect
     y="81.04364"
     x="240.48257"
     height="4.312191"
     width="9.314333"
     id="rect5217-8"
     style="display:inline;fill:#e6e6e6;fill-opacity:1;stroke:none;stroke-opacity:1" />
  <rect
     y="81.04364"
     x="244.79477"
     height="4.3122039"
     width="3.6222298"
     id="rect5219-9"
     style="display:inline;fill:#ffe680;fill-opacity:1;stroke:none;stroke-opacity:1" />
  <rect
     y="123.9303"
     x="3.4638169"
     height="3.1295786"
     width="5.8534231"
     id="rect5239-2"
     style="display:inline;fill:#999999;fill-opacity:1;stroke:none;stroke-opacity:1" />
  <rect
     y="140.57062"
     x="3.3400376"
     height="3.1295786"
     width="5.8534231"
     id="rect5239-3-0"
     style="display:inline;fill:#999999;fill-opacity:1;stroke:none;stroke-opacity:1" />
  <path
     inkscape:connector-curvature="0"
     id="path5276"
     d="m 9.65702,75.51497 -8.37463,0.85894 0,3.54311 8.26727,0.75157"
     style="fill:none;fill-rule:evenodd;stroke:#806600;stroke-width:1px;stroke-linecap:butt;stroke-linejoin:miter;stroke-opacity:1" />
  <path
     inkscape:connector-curvature="0"
     id="path5276-9"
     d="m 9.88152,86.5735 -8.37463,0.85894 0,3.54311 8.26727,0.75157"
     style="display:inline;fill:none;fill-rule:evenodd;stroke:#806600;stroke-width:1px;stroke-linecap:butt;stroke-linejoin:miter;stroke-opacity:1" />
  <path
     inkscape:connector-curvature="0"
     id="path4628"
     d="m 113.36642,3.62347 a 2.6574802,2.6574802 0 0 0 -2.6582,2.65821 2.6574802,2.6574802 0 0 0 2.6582,2.6582 2.6574802,2.6574802 0 0 0 2.65625,-2.6582 2.6574802,2.6574802 0 0 0 -2.65625,-2.65821 z m 0,1.07813 a 1.580587,1.580587 0 0 1 1.58008,1.58008 1.580587,1.580587 0 0 1 -1.58008,1.58008 1.580587,1.580587 0 0 1 -1.58008,-1.58008 1.580587,1.580587 0 0 1 1.58008,-1.58008 z"
     style="display:inline;fill:#ffe680;enable-background:new" />
  <path
     id="path4628-5"
     d="m 122.3988,3.62347 a 2.6574802,2.6574802 0 0 0 -2.6582,2.65821 2.6574802,2.6574802 0 0 0 2.6582,2.6582 2.6574802,2.6574802 0 0 0 2.65625,-2.6582 2.6574802,2.6574802 0 0 0 -2.65625,-2.65821 z m 0,1.07813 a 1.580587,1.580587 0 0 1 1.58008,1.58008 1.580587,1.580587 0 0 1 -1.58008,1.58008 1.580587,1.580587 0 0 1 -1.58008,-1.58008 1.580587,1.580587 0 0 1 1.58008,-1.58008 z"
     style="display:inline;fill:#ffe680;enable-background:new"
     inkscape:connector-curvature="0" />
  <path
     inkscape:connector-curvature="0"
     id="path4628-8"
     d="m 131.43117,3.62347 a 2.6574802,2.6574802 0 0 0 -2.6582,2.65821 2.6574802,2.6574802 0 0 0 2.6582,2.6582 2.6574802,2.6574802 0 0 0 2.65625,-2.6582 2.6574802,2.6574802 0 0 0 -2.65625,-2.65821 z m 0,1.07813 a 1.580587,1.580587 0 0 1 1.58008,1.58008 1.580587,1.580587 0 0 1 -1.58008,1.58008 1.580587,1.580587 0 0 1 -1.58008,-1.58008 1.580587,1.580587 0 0 1 1.58008,-1.58008 z"
     style="display:inline;fill:#ffe680;enable-background:new" />
  <path
     id="path4628-5-1"
     d="m 140.46355,3.62347 a 2.6574802,2.6574802 0 0 0 -2.6582,2.65821 2.6574802,2.6574802 0 0 0 2.6582,2.6582 2.6574802,2.6574802 0 0 0 2.65625,-2.6582 2.6574802,2.6574802 0 0 0 -2.65625,-2.65821 z m 0,1.07813 a 1.580587,1.580587 0 0 1 1.58008,1.58008 1.580587,1.580587 0 0 1 -1.58008,1.58008 1.580587,1.580587 0 0 1 -1.58008,-1.58008 1.580587,1.580587 0 0 1 1.58008,-1.58008 z"
     style="display:inline;fill:#ffe680;enable-background:new"
     inkscape:connector-curvature="0" />
  <path
     inkscape:connector-curvature="0"
     id="path4628-2"
     d="m 149.49593,3.62347 a 2.6574802,2.6574802 0 0 0 -2.6582,2.65821 2.6574802,2.6574802 0 0 0 2.6582,2.6582 2.6574802,2.6574802 0 0 0 2.65625,-2.6582 2.6574802,2.6574802 0 0 0 -2.65625,-2.65821 z m 0,1.07813 a 1.580587,1.580587 0 0 1 1.58008,1.58008 1.580587,1.580587 0 0 1 -1.58008,1.58008 1.580587,1.580587 0 0 1 -1.58008,-1.58008 1.580587,1.580587 0 0 1 1.58008,-1.58008 z"
     style="display:inline;fill:#ffe680;enable-background:new" />
  <path
     id="path4628-5-17"
     d="m 158.52831,3.62347 a 2.6574802,2.6574802 0 0 0 -2.6582,2.65821 2.6574802,2.6574802 0 0 0 2.6582,2.6582 2.6574802,2.6574802 0 0 0 2.65625,-2.6582 2.6574802,2.6574802 0 0 0 -2.65625,-2.65821 z m 0,1.07813 a 1.580587,1.580587 0 0 1 1.58008,1.58008 1.580587,1.580587 0 0 1 -1.58008,1.58008 1.580587,1.580587 0 0 1 -1.58008,-1.58008 1.580587,1.580587 0 0 1 1.58008,-1.58008 z"
     style="display:inline;fill:#ffe680;enable-background:new"
     inkscape:connector-curvature="0" />
  <path
     inkscape:connector-curvature="0"
     id="path4628-8-2"
     d="m 167.56069,3.62347 a 2.6574802,2.6574802 0 0 0 -2.6582,2.65821 2.6574802,2.6574802 0 0 0 2.6582,2.6582 2.6574802,2.6574802 0 0 0 2.65625,-2.6582 2.6574802,2.6574802 0 0 0 -2.65625,-2.65821 z m 0,1.07813 a 1.580587,1.580587 0 0 1 1.58008,1.58008 1.580587,1.580587 0 0 1 -1.58008,1.58008 1.580587,1.580587 0 0 1 -1.58008,-1.58008 1.580587,1.580587 0 0 1 1.58008,-1.58008 z"
     style="display:inline;fill:#ffe680;enable-background:new" />
  <path
     id="path4628-5-1-1"
     d="m 176.59307,3.62347 a 2.6574802,2.6574802 0 0 0 -2.6582,2.65821 2.6574802,2.6574802 0 0 0 2.6582,2.6582 2.6574802,2.6574802 0 0 0 2.65625,-2.6582 2.6574802,2.6574802 0 0 0 -2.65625,-2.65821 z m 0,1.07813 a 1.580587,1.580587 0 0 1 1.58008,1.58008 1.580587,1.580587 0 0 1 -1.58008,1.58008 1.580587,1.580587 0 0 1 -1.58008,-1.58008 1.580587,1.580587 0 0 1 1.58008,-1.58008 z"
     style="display:inline;fill:#ffe680;enable-background:new"
     inkscape:connector-curvature="0" />
  <path
     inkscape:connector-curvature="0"
     id="path4628-1"
     d="m 185.62545,3.62347 a 2.6574802,2.6574802 0 0 0 -2.6582,2.65821 2.6574802,2.6574802 0 0 0 2.6582,2.6582 2.6574802,2.6574802 0 0 0 2.65625,-2.6582 2.6574802,2.6574802 0 0 0 -2.65625,-2.65821 z m 0,1.07813 a 1.580587,1.580587 0 0 1 1.58008,1.58008 1.580587,1.580587 0 0 1 -1.58008,1.58008 1.580587,1.580587 0 0 1 -1.58008,-1.58008 1.580587,1.580587 0 0 1 1.58008,-1.58008 z"
     style="display:inline;fill:#ffe680;enable-background:new" />
  <path
     id="path4628-5-5"
     d="m 194.65783,3.62347 a 2.6574802,2.6574802 0 0 0 -2.6582,2.65821 2.6574802,2.6574802 0 0 0 2.6582,2.6582 2.6574802,2.6574802 0 0 0 2.65625,-2.6582 2.6574802,2.6574802 0 0 0 -2.65625,-2.65821 z m 0,1.07813 a 1.580587,1.580587 0 0 1 1.58008,1.58008 1.580587,1.580587 0 0 1 -1.58008,1.58008 1.580587,1.580587 0 0 1 -1.58008,-1.58008 1.580587,1.580587 0 0 1 1.58008,-1.58008 z"
     style="display:inline;fill:#ffe680;enable-background:new"
     inkscape:connector-curvature="0" />
  <path
     inkscape:connector-curvature="0"
     id="path4628-8-9"
     d="m 203.69021,3.62347 a 2.6574802,2.6574802 0 0 0 -2.6582,2.65821 2.6574802,2.6574802 0 0 0 2.6582,2.6582 2.6574802,2.6574802 0 0 0 2.65625,-2.6582 2.6574802,2.6574802 0 0 0 -2.65625,-2.65821 z m 0,1.07813 a 1.580587,1.580587 0 0 1 1.58008,1.58008 1.580587,1.580587 0 0 1 -1.58008,1.58008 1.580587,1.580587 0 0 1 -1.58008,-1.58008 1.580587,1.580587 0 0 1 1.58008,-1.58008 z"
     style="display:inline;fill:#ffe680;enable-background:new" />
  <path
     id="path4628-5-1-0"
     d="m 212.72259,3.62347 a 2.6574802,2.6574802 0 0 0 -2.6582,2.65821 2.6574802,2.6574802 0 0 0 2.6582,2.6582 2.6574802,2.6574802 0 0 0 2.65625,-2.6582 2.6574802,2.6574802 0 0 0 -2.65625,-2.65821 z m 0,1.07813 a 1.580587,1.580587 0 0 1 1.58008,1.58008 1.580587,1.580587 0 0 1 -1.58008,1.58008 1.580587,1.580587 0 0 1 -1.58008,-1.58008 1.580587,1.580587 0 0 1 1.58008,-1.58008 z"
     style="display:inline;fill:#ffe680;enable-background:new"
     inkscape:connector-curvature="0" />
  <path
     inkscape:connector-curvature="0"
     id="path4628-3"
     d="m 221.75497,3.62347 a 2.6574802,2.6574802 0 0 0 -2.6582,2.65821 2.6574802,2.6574802 0 0 0 2.6582,2.6582 2.6574802,2.6574802 0 0 0 2.65625,-2.6582 2.6574802,2.6574802 0 0 0 -2.65625,-2.65821 z m 0,1.07813 a 1.580587,1.580587 0 0 1 1.58008,1.58008 1.580587,1.580587 0 0 1 -1.58008,1.58008 1.580587,1.580587 0 0 1 -1.58008,-1.58008 1.580587,1.580587 0 0 1 1.58008,-1.58008 z"
     style="display:inline;fill:#ffe680;enable-background:new" />
  <path
     id="path4628-5-8"
     d="m 230.78735,3.62347 a 2.6574802,2.6574802 0 0 0 -2.6582,2.65821 2.6574802,2.6574802 0 0 0 2.6582,2.6582 2.6574802,2.6574802 0 0 0 2.65625,-2.6582 2.6574802,2.6574802 0 0 0 -2.65625,-2.65821 z m 0,1.07813 a 1.580587,1.580587 0 0 1 1.58008,1.58008 1.580587,1.580587 0 0 1 -1.58008,1.58008 1.580587,1.580587 0 0 1 -1.58008,-1.58008 1.580587,1.580587 0 0 1 1.58008,-1.58008 z"
     style="display:inline;fill:#ffe680;enable-background:new"
     inkscape:connector-curvature="0" />
  <path
     inkscape:connector-curvature="0"
     id="path4628-8-6"
     d="m 239.81973,3.62347 a 2.6574802,2.6574802 0 0 0 -2.6582,2.65821 2.6574802,2.6574802 0 0 0 2.6582,2.6582 2.6574802,2.6574802 0 0 0 2.65625,-2.6582 2.6574802,2.6574802 0 0 0 -2.65625,-2.65821 z m 0,1.07813 a 1.580587,1.580587 0 0 1 1.58008,1.58008 1.580587,1.580587 0 0 1 -1.58008,1.58008 1.580587,1.580587 0 0 1 -1.58008,-1.58008 1.580587,1.580587 0 0 1 1.58008,-1.58008 z"
     style="display:inline;fill:#ffe680;enable-background:new" />
  <path
     id="path4628-5-1-6"
     d="m 248.8521,3.62347 a 2.6574802,2.6574802 0 0 0 -2.6582,2.65821 2.6574802,2.6574802 0 0 0 2.6582,2.6582 2.6574802,2.6574802 0 0 0 2.65625,-2.6582 2.6574802,2.6574802 0 0 0 -2.65625,-2.65821 z m 0,1.07813 a 1.580587,1.580587 0 0 1 1.58008,1.58008 1.580587,1.580587 0 0 1 -1.58008,1.58008 1.580587,1.580587 0 0 1 -1.58008,-1.58008 1.580587,1.580587 0 0 1 1.58008,-1.58008 z"
     style="display:inline;fill:#ffe680;enable-background:new"
     inkscape:connector-curvature="0" />
  <path
     inkscape:connector-curvature="0"
     id="path4628-8-6-6"
     d="m 257.88448,3.62347 a 2.6574802,2.6574802 0 0 0 -2.6582,2.65821 2.6574802,2.6574802 0 0 0 2.6582,2.6582 2.6574802,2.6574802 0 0 0 2.65625,-2.6582 2.6574802,2.6574802 0 0 0 -2.65625,-2.65821 z m 0,1.07813 a 1.580587,1.580587 0 0 1 1.58008,1.58008 1.580587,1.580587 0 0 1 -1.58008,1.58008 1.580587,1.580587 0 0 1 -1.58008,-1.58008 1.580587,1.580587 0 0 1 1.58008,-1.58008 z"
     style="display:inline;fill:#ffe680;enable-background:new" />
  <path
     id="path4628-5-1-6-7"
     d="m 266.91686,3.62347 a 2.6574802,2.6574802 0 0 0 -2.6582,2.65821 2.6574802,2.6574802 0 0 0 2.6582,2.6582 2.6574802,2.6574802 0 0 0 2.65625,-2.6582 2.6574802,2.6574802 0 0 0 -2.65625,-2.65821 z m 0,1.07813 a 1.580587,1.580587 0 0 1 1.58008,1.58008 1.580587,1.580587 0 0 1 -1.58008,1.58008 1.580587,1.580587 0 0 1 -1.58008,-1.58008 1.580587,1.580587 0 0 1 1.58008,-1.58008 z"
     style="display:inline;fill:#ffe680;enable-background:new"
     inkscape:connector-curvature="0" />
  <path
     inkscape:connector-curvature="0"
     id="path4628-55"
     d="m 113.39534,161.29162 a 2.6574802,2.6574802 0 0 0 -2.6582,2.65821 2.6574802,2.6574802 0 0 0 2.6582,2.6582 2.6574802,2.6574802 0 0 0 2.65625,-2.6582 2.6574802,2.6574802 0 0 0 -2.65625,-2.65821 z m 0,1.07813 a 1.580587,1.580587 0 0 1 1.58008,1.58008 1.580587,1.580587 0 0 1 -1.58008,1.58008 1.580587,1.580587 0 0 1 -1.58008,-1.58008 1.580587,1.580587 0 0 1 1.58008,-1.58008 z"
     style="display:inline;fill:#ffe680;enable-background:new" />
  <path
     id="path4628-5-3"
     d="m 122.42772,161.29162 a 2.6574802,2.6574802 0 0 0 -2.6582,2.65821 2.6574802,2.6574802 0 0 0 2.6582,2.6582 2.6574802,2.6574802 0 0 0 2.65625,-2.6582 2.6574802,2.6574802 0 0 0 -2.65625,-2.65821 z m 0,1.07813 a 1.580587,1.580587 0 0 1 1.58008,1.58008 1.580587,1.580587 0 0 1 -1.58008,1.58008 1.580587,1.580587 0 0 1 -1.58008,-1.58008 1.580587,1.580587 0 0 1 1.58008,-1.58008 z"
     style="display:inline;fill:#ffe680;enable-background:new"
     inkscape:connector-curvature="0" />
  <path
     inkscape:connector-curvature="0"
     id="path4628-8-1"
     d="m 131.46009,161.29162 a 2.6574802,2.6574802 0 0 0 -2.6582,2.65821 2.6574802,2.6574802 0 0 0 2.6582,2.6582 2.6574802,2.6574802 0 0 0 2.65625,-2.6582 2.6574802,2.6574802 0 0 0 -2.65625,-2.65821 z m 0,1.07813 a 1.580587,1.580587 0 0 1 1.58008,1.58008 1.580587,1.580587 0 0 1 -1.58008,1.58008 1.580587,1.580587 0 0 1 -1.58008,-1.58008 1.580587,1.580587 0 0 1 1.58008,-1.58008 z"
     style="display:inline;fill:#ffe680;enable-background:new" />
  <path
     id="path4628-5-1-4"
     d="m 140.49247,161.29162 a 2.6574802,2.6574802 0 0 0 -2.6582,2.65821 2.6574802,2.6574802 0 0 0 2.6582,2.6582 2.6574802,2.6574802 0 0 0 2.65625,-2.6582 2.6574802,2.6574802 0 0 0 -2.65625,-2.65821 z m 0,1.07813 a 1.580587,1.580587 0 0 1 1.58008,1.58008 1.580587,1.580587 0 0 1 -1.58008,1.58008 1.580587,1.580587 0 0 1 -1.58008,-1.58008 1.580587,1.580587 0 0 1 1.58008,-1.58008 z"
     style="display:inline;fill:#ffe680;enable-background:new"
     inkscape:connector-curvature="0" />
  <path
     inkscape:connector-curvature="0"
     id="path4628-2-9"
     d="m 149.52485,161.29162 a 2.6574802,2.6574802 0 0 0 -2.6582,2.65821 2.6574802,2.6574802 0 0 0 2.6582,2.6582 2.6574802,2.6574802 0 0 0 2.65625,-2.6582 2.6574802,2.6574802 0 0 0 -2.65625,-2.65821 z m 0,1.07813 a 1.580587,1.580587 0 0 1 1.58008,1.58008 1.580587,1.580587 0 0 1 -1.58008,1.58008 1.580587,1.580587 0 0 1 -1.58008,-1.58008 1.580587,1.580587 0 0 1 1.58008,-1.58008 z"
     style="display:inline;fill:#ffe680;enable-background:new" />
  <path
     id="path4628-5-17-2"
     d="m 158.55723,161.29162 a 2.6574802,2.6574802 0 0 0 -2.6582,2.65821 2.6574802,2.6574802 0 0 0 2.6582,2.6582 2.6574802,2.6574802 0 0 0 2.65625,-2.6582 2.6574802,2.6574802 0 0 0 -2.65625,-2.65821 z m 0,1.07813 a 1.580587,1.580587 0 0 1 1.58008,1.58008 1.580587,1.580587 0 0 1 -1.58008,1.58008 1.580587,1.580587 0 0 1 -1.58008,-1.58008 1.580587,1.580587 0 0 1 1.58008,-1.58008 z"
     style="display:inline;fill:#ffe680;enable-background:new"
     inkscape:connector-curvature="0" />
  <path
     inkscape:connector-curvature="0"
     id="path4628-8-2-6"
     d="m 167.58961,161.29162 a 2.6574802,2.6574802 0 0 0 -2.6582,2.65821 2.6574802,2.6574802 0 0 0 2.6582,2.6582 2.6574802,2.6574802 0 0 0 2.65625,-2.6582 2.6574802,2.6574802 0 0 0 -2.65625,-2.65821 z m 0,1.07813 a 1.580587,1.580587 0 0 1 1.58008,1.58008 1.580587,1.580587 0 0 1 -1.58008,1.58008 1.580587,1.580587 0 0 1 -1.58008,-1.58008 1.580587,1.580587 0 0 1 1.58008,-1.58008 z"
     style="display:inline;fill:#ffe680;enable-background:new" />
  <path
     id="path4628-5-1-1-1"
     d="m 176.62199,161.29162 a 2.6574802,2.6574802 0 0 0 -2.6582,2.65821 2.6574802,2.6574802 0 0 0 2.6582,2.6582 2.6574802,2.6574802 0 0 0 2.65625,-2.6582 2.6574802,2.6574802 0 0 0 -2.65625,-2.65821 z m 0,1.07813 a 1.580587,1.580587 0 0 1 1.58008,1.58008 1.580587,1.580587 0 0 1 -1.58008,1.58008 1.580587,1.580587 0 0 1 -1.58008,-1.58008 1.580587,1.580587 0 0 1 1.58008,-1.58008 z"
     style="display:inline;fill:#ffe680;enable-background:new"
     inkscape:connector-curvature="0" />
  <path
     inkscape:connector-curvature="0"
     id="path4628-1-0"
     d="m 185.65437,161.29162 a 2.6574802,2.6574802 0 0 0 -2.6582,2.65821 2.6574802,2.6574802 0 0 0 2.6582,2.6582 2.6574802,2.6574802 0 0 0 2.65625,-2.6582 2.6574802,2.6574802 0 0 0 -2.65625,-2.65821 z m 0,1.07813 a 1.580587,1.580587 0 0 1 1.58008,1.58008 1.580587,1.580587 0 0 1 -1.58008,1.58008 1.580587,1.580587 0 0 1 -1.58008,-1.58008 1.580587,1.580587 0 0 1 1.58008,-1.58008 z"
     style="display:inline;fill:#ffe680;enable-background:new" />
  <path
     id="path4628-5-5-3"
     d="m 194.68675,161.29162 a 2.6574802,2.6574802 0 0 0 -2.6582,2.65821 2.6574802,2.6574802 0 0 0 2.6582,2.6582 2.6574802,2.6574802 0 0 0 2.65625,-2.6582 2.6574802,2.6574802 0 0 0 -2.65625,-2.65821 z m 0,1.07813 a 1.580587,1.580587 0 0 1 1.58008,1.58008 1.580587,1.580587 0 0 1 -1.58008,1.58008 1.580587,1.580587 0 0 1 -1.58008,-1.58008 1.580587,1.580587 0 0 1 1.58008,-1.58008 z"
     style="display:inline;fill:#ffe680;enable-background:new"
     inkscape:connector-curvature="0" />
  <path
     inkscape:connector-curvature="0"
     id="path4628-8-9-0"
     d="m 203.71913,161.29162 a 2.6574802,2.6574802 0 0 0 -2.6582,2.65821 2.6574802,2.6574802 0 0 0 2.6582,2.6582 2.6574802,2.6574802 0 0 0 2.65625,-2.6582 2.6574802,2.6574802 0 0 0 -2.65625,-2.65821 z m 0,1.07813 a 1.580587,1.580587 0 0 1 1.58008,1.58008 1.580587,1.580587 0 0 1 -1.58008,1.58008 1.580587,1.580587 0 0 1 -1.58008,-1.58008 1.580587,1.580587 0 0 1 1.58008,-1.58008 z"
     style="display:inline;fill:#ffe680;enable-background:new" />
  <path
     id="path4628-5-1-0-9"
     d="m 212.75151,161.29162 a 2.6574802,2.6574802 0 0 0 -2.6582,2.65821 2.6574802,2.6574802 0 0 0 2.6582,2.6582 2.6574802,2.6574802 0 0 0 2.65625,-2.6582 2.6574802,2.6574802 0 0 0 -2.65625,-2.65821 z m 0,1.07813 a 1.580587,1.580587 0 0 1 1.58008,1.58008 1.580587,1.580587 0 0 1 -1.58008,1.58008 1.580587,1.580587 0 0 1 -1.58008,-1.58008 1.580587,1.580587 0 0 1 1.58008,-1.58008 z"
     style="display:inline;fill:#ffe680;enable-background:new"
     inkscape:connector-curvature="0" />
  <path
     inkscape:connector-curvature="0"
     id="path4628-3-2"
     d="m 221.78389,161.29162 a 2.6574802,2.6574802 0 0 0 -2.6582,2.65821 2.6574802,2.6574802 0 0 0 2.6582,2.6582 2.6574802,2.6574802 0 0 0 2.65625,-2.6582 2.6574802,2.6574802 0 0 0 -2.65625,-2.65821 z m 0,1.07813 a 1.580587,1.580587 0 0 1 1.58008,1.58008 1.580587,1.580587 0 0 1 -1.58008,1.58008 1.580587,1.580587 0 0 1 -1.58008,-1.58008 1.580587,1.580587 0 0 1 1.58008,-1.58008 z"
     style="display:inline;fill:#ffe680;enable-background:new" />
  <path
     id="path4628-5-8-0"
     d="m 230.81627,161.29162 a 2.6574802,2.6574802 0 0 0 -2.6582,2.65821 2.6574802,2.6574802 0 0 0 2.6582,2.6582 2.6574802,2.6574802 0 0 0 2.65625,-2.6582 2.6574802,2.6574802 0 0 0 -2.65625,-2.65821 z m 0,1.07813 a 1.580587,1.580587 0 0 1 1.58008,1.58008 1.580587,1.580587 0 0 1 -1.58008,1.58008 1.580587,1.580587 0 0 1 -1.58008,-1.58008 1.580587,1.580587 0 0 1 1.58008,-1.58008 z"
     style="display:inline;fill:#ffe680;enable-background:new"
     inkscape:connector-curvature="0" />
  <path
     inkscape:connector-curvature="0"
     id="path4628-8-6-66"
     d="m 239.84865,161.29162 a 2.6574802,2.6574802 0 0 0 -2.6582,2.65821 2.6574802,2.6574802 0 0 0 2.6582,2.6582 2.6574802,2.6574802 0 0 0 2.65625,-2.6582 2.6574802,2.6574802 0 0 0 -2.65625,-2.65821 z m 0,1.07813 a 1.580587,1.580587 0 0 1 1.58008,1.58008 1.580587,1.580587 0 0 1 -1.58008,1.58008 1.580587,1.580587 0 0 1 -1.58008,-1.58008 1.580587,1.580587 0 0 1 1.58008,-1.58008 z"
     style="display:inline;fill:#ffe680;enable-background:new" />
  <path
     id="path4628-5-1-6-6"
     d="m 248.88102,161.29162 a 2.6574802,2.6574802 0 0 0 -2.6582,2.65821 2.6574802,2.6574802 0 0 0 2.6582,2.6582 2.6574802,2.6574802 0 0 0 2.65625,-2.6582 2.6574802,2.6574802 0 0 0 -2.65625,-2.65821 z m 0,1.07813 a 1.580587,1.580587 0 0 1 1.58008,1.58008 1.580587,1.580587 0 0 1 -1.58008,1.58008 1.580587,1.580587 0 0 1 -1.58008,-1.58008 1.580587,1.580587 0 0 1 1.58008,-1.58008 z"
     style="display:inline;fill:#ffe680;enable-background:new"
     inkscape:connector-curvature="0" />
  <path
     inkscape:connector-curvature="0"
     id="path4628-8-6-6-0"
     d="m 257.9134,161.29162 a 2.6574802,2.6574802 0 0 0 -2.6582,2.65821 2.6574802,2.6574802 0 0 0 2.6582,2.6582 2.6574802,2.6574802 0 0 0 2.65625,-2.6582 2.6574802,2.6574802 0 0 0 -2.65625,-2.65821 z m 0,1.07813 a 1.580587,1.580587 0 0 1 1.58008,1.58008 1.580587,1.580587 0 0 1 -1.58008,1.58008 1.580587,1.580587 0 0 1 -1.58008,-1.58008 1.580587,1.580587 0 0 1 1.58008,-1.58008 z"
     style="display:inline;fill:#ffe680;enable-background:new" />
  <path
     id="path4628-5-1-6-7-9"
     d="m 266.94578,161.29162 a 2.6574802,2.6574802 0 0 0 -2.6582,2.65821 2.6574802,2.6574802 0 0 0 2.6582,2.6582 2.6574802,2.6574802 0 0 0 2.65625,-2.6582 2.6574802,2.6574802 0 0 0 -2.65625,-2.65821 z m 0,1.07813 a 1.580587,1.580587 0 0 1 1.58008,1.58008 1.580587,1.580587 0 0 1 -1.58008,1.58008 1.580587,1.580587 0 0 1 -1.58008,-1.58008 1.580587,1.580587 0 0 1 1.58008,-1.58008 z"
     style="display:inline;fill:#ffe680;enable-background:new"
     inkscape:connector-curvature="0" />
  <rect
     y="19.994444"
     x="2.589807"
     height="25.454546"
     width="19.999998"
     id="rect4175-4"
     style="fill:#cccccc;enable-background:new" />
  <rect
     transform="scale(1,-1)"
     y="-45.386776"
     x="2.5110717"
     height="1.2834581"
     width="20.058891"
     id="rect4254-9"
     style="fill:#b3b3b3;enable-background:new" />
  <rect
     y="19.844053"
     x="2.5840697"
     height="1.5557067"
     width="20.068615"
     id="rect4298-6"
     style="fill:#e6e6e6;enable-background:new" />
  <rect
     ry="0"
     y="19.844053"
     x="21.252527"
     height="25.513577"
     width="1.3223509"
     id="rect4300-1"
     style="fill:#4d4d4d;enable-background:new" />
  <rect
     y="23.142271"
     x="4.1894927"
     height="3.1295786"
     width="5.8534231"
     id="rect5239-2-1"
     style="display:inline;fill:#999999;fill-opacity:1;stroke:none;stroke-opacity:1;enable-background:new" />
  <rect
     y="39.782589"
     x="4.0657134"
     height="3.1295786"
     width="5.8534231"
     id="rect5239-3-0-2"
     style="display:inline;fill:#999999;fill-opacity:1;stroke:none;stroke-opacity:1;enable-background:new" />
</svg>
